<?xml version="1.0" encoding="utf-8"?>
<!-- Generator: Adobe Illustrator 28.0.0, SVG Export Plug-In . SVG Version: 6.00 Build 0)  -->
<svg version="1.1" id="Layer_1" xmlns="http://www.w3.org/2000/svg" xmlns:xlink="http://www.w3.org/1999/xlink" x="0px" y="0px"
	 viewBox="0 0 24 30" style="enable-background:new 0 0 24 30;" xml:space="preserve">
<g>
	<path d="M5.1,14.1l5-5c0.2-0.2,0.5-0.2,0.7,0c0.2,0.2,0.2,0.5,0,0.7L6.7,14H17V7.3c0-0.3,0.2-0.5,0.5-0.5S18,7,18,7.3v7.2
		c0,0.3-0.2,0.5-0.5,0.5c0,0,0,0,0,0H6.7l4.1,4.1c0.2,0.2,0.2,0.5,0,0.7c-0.2,0.2-0.5,0.2-0.7,0c0,0,0,0,0,0l-5-5
		C5,14.7,5,14.3,5.1,14.1C5.1,14.1,5.1,14.1,5.1,14.1z"/>
</g>
</svg>
